<svg xmlns="http://www.w3.org/2000/svg" xmlns:xlink="http://www.w3.org/1999/xlink" width="124" zoomAndPan="magnify" viewBox="0 0 93 43.499998" height="58" preserveAspectRatio="xMidYMid meet" version="1.0"><defs><g/><clipPath id="491b878e85"><path d="M 0.527344 8.929688 L 16 8.929688 L 16 33.398438 L 0.527344 33.398438 Z M 0.527344 8.929688 " clip-rule="nonzero"/></clipPath></defs><g clip-path="url(#491b878e85)"><path fill="#28e6a6" d="M 13.164062 27.246094 L 7.347656 27.246094 L 9.667969 22.171875 L 11.871094 22.171875 L 9.714844 13.6875 L 9.597656 13.6875 L 0.527344 33.152344 L 4.652344 33.152344 L 5.863281 30.503906 L 13.460938 30.503906 L 14.664062 33.152344 Z M 15.890625 33.152344 L 15.890625 27.246094 L 14.5 27.246094 Z M 11.453125 13.6875 L 13.683594 22.171875 L 15.890625 22.171875 L 15.890625 13.6875 Z M 15.421875 10.699219 C 15.421875 11.667969 14.636719 12.457031 13.667969 12.457031 C 12.695312 12.457031 11.917969 11.664062 11.917969 10.699219 C 11.917969 9.734375 12.703125 8.945312 13.671875 8.945312 C 14.644531 8.945312 15.421875 9.730469 15.421875 10.699219 Z M 15.421875 10.699219 " fill-opacity="1" fill-rule="nonzero"/></g><g fill="#ffffff" fill-opacity="1"><g transform="translate(15.904366, 30.370602)"><g><path d="M 6.265625 0.265625 C 4.734375 0.265625 3.597656 -0.15625 2.859375 -1 C 2.128906 -1.84375 1.765625 -3.050781 1.765625 -4.625 L 1.765625 -13.703125 L 5.203125 -13.703125 L 5.203125 -5.0625 C 5.203125 -4.21875 5.378906 -3.601562 5.734375 -3.21875 C 6.097656 -2.832031 6.660156 -2.640625 7.421875 -2.640625 C 8.367188 -2.640625 9.109375 -2.953125 9.640625 -3.578125 C 10.171875 -4.203125 10.4375 -5.1875 10.4375 -6.53125 L 10.4375 -13.703125 L 13.875 -13.703125 L 13.875 0 L 10.5625 0 L 10.5625 -2.015625 L 10.3125 -2.078125 C 9.875 -1.285156 9.335938 -0.695312 8.703125 -0.3125 C 8.066406 0.0703125 7.253906 0.265625 6.265625 0.265625 Z M 6.265625 0.265625 "/></g></g></g><g fill="#ffffff" fill-opacity="1"><g transform="translate(31.748667, 30.370602)"><g><path d="M 7.984375 0.265625 C 6.660156 0.265625 5.488281 -0.0078125 4.46875 -0.5625 C 3.445312 -1.113281 2.648438 -1.921875 2.078125 -2.984375 C 1.515625 -4.054688 1.234375 -5.34375 1.234375 -6.84375 C 1.234375 -8.351562 1.515625 -9.640625 2.078125 -10.703125 C 2.648438 -11.773438 3.441406 -12.582031 4.453125 -13.125 C 5.460938 -13.675781 6.617188 -13.953125 7.921875 -13.953125 C 10.816406 -13.953125 12.664062 -12.90625 13.46875 -10.8125 L 11.109375 -9.125 L 10.859375 -9.125 C 10.578125 -9.769531 10.207031 -10.25 9.75 -10.5625 C 9.300781 -10.882812 8.691406 -11.046875 7.921875 -11.046875 C 6.929688 -11.046875 6.15625 -10.703125 5.59375 -10.015625 C 5.039062 -9.328125 4.765625 -8.269531 4.765625 -6.84375 C 4.765625 -5.4375 5.046875 -4.382812 5.609375 -3.6875 C 6.171875 -3 6.960938 -2.65625 7.984375 -2.65625 C 8.734375 -2.65625 9.363281 -2.851562 9.875 -3.25 C 10.394531 -3.65625 10.769531 -4.238281 11 -5 L 11.25 -5.015625 L 13.703125 -3.671875 C 13.347656 -2.515625 12.703125 -1.566406 11.765625 -0.828125 C 10.828125 -0.0976562 9.566406 0.265625 7.984375 0.265625 Z M 7.984375 0.265625 "/></g></g></g><g fill="#ffffff" fill-opacity="1"><g transform="translate(45.866987, 30.370602)"><g><path d="M 13.53125 -6.078125 L 4.734375 -6.078125 C 4.828125 -4.878906 5.164062 -4.007812 5.75 -3.46875 C 6.332031 -2.925781 7.125 -2.65625 8.125 -2.65625 C 8.90625 -2.65625 9.539062 -2.800781 10.03125 -3.09375 C 10.519531 -3.394531 10.914062 -3.84375 11.21875 -4.4375 L 11.484375 -4.4375 L 13.765625 -2.96875 C 13.316406 -2.007812 12.640625 -1.226562 11.734375 -0.625 C 10.835938 -0.03125 9.632812 0.265625 8.125 0.265625 C 6.707031 0.265625 5.484375 -0.00390625 4.453125 -0.546875 C 3.421875 -1.085938 2.625 -1.890625 2.0625 -2.953125 C 1.507812 -4.015625 1.234375 -5.3125 1.234375 -6.84375 C 1.234375 -8.394531 1.523438 -9.707031 2.109375 -10.78125 C 2.703125 -11.851562 3.5 -12.648438 4.5 -13.171875 C 5.5 -13.691406 6.625 -13.953125 7.875 -13.953125 C 9.8125 -13.953125 11.296875 -13.4375 12.328125 -12.40625 C 13.359375 -11.382812 13.875 -9.882812 13.875 -7.90625 C 13.875 -7.175781 13.847656 -6.613281 13.796875 -6.21875 Z M 10.578125 -8.296875 C 10.546875 -9.335938 10.300781 -10.097656 9.84375 -10.578125 C 9.394531 -11.054688 8.738281 -11.296875 7.875 -11.296875 C 6.132812 -11.296875 5.113281 -10.296875 4.8125 -8.296875 Z M 10.578125 -8.296875 "/></g></g></g><g fill="#ffffff" fill-opacity="1"><g transform="translate(60.755172, 30.370602)"><g><path d="M 6.40625 0.265625 C 5.46875 0.265625 4.609375 0.15625 3.828125 -0.0625 C 3.054688 -0.28125 2.394531 -0.582031 1.84375 -0.96875 C 1.289062 -1.351562 0.882812 -1.796875 0.625 -2.296875 L 2.53125 -4.359375 L 2.796875 -4.359375 C 3.253906 -3.742188 3.789062 -3.28125 4.40625 -2.96875 C 5.03125 -2.664062 5.707031 -2.515625 6.4375 -2.515625 C 7.101562 -2.515625 7.601562 -2.632812 7.9375 -2.875 C 8.28125 -3.113281 8.453125 -3.457031 8.453125 -3.90625 C 8.453125 -4.257812 8.328125 -4.550781 8.078125 -4.78125 C 7.835938 -5.019531 7.445312 -5.207031 6.90625 -5.34375 L 5.09375 -5.78125 C 3.738281 -6.101562 2.75 -6.597656 2.125 -7.265625 C 1.5 -7.929688 1.1875 -8.773438 1.1875 -9.796875 C 1.1875 -10.648438 1.398438 -11.390625 1.828125 -12.015625 C 2.265625 -12.648438 2.878906 -13.128906 3.671875 -13.453125 C 4.460938 -13.785156 5.382812 -13.953125 6.4375 -13.953125 C 7.664062 -13.953125 8.6875 -13.773438 9.5 -13.421875 C 10.3125 -13.066406 10.945312 -12.59375 11.40625 -12 L 9.5625 -10.015625 L 9.3125 -10.015625 C 8.9375 -10.441406 8.507812 -10.753906 8.03125 -10.953125 C 7.550781 -11.148438 7.019531 -11.25 6.4375 -11.25 C 5.070312 -11.25 4.390625 -10.828125 4.390625 -9.984375 C 4.390625 -9.628906 4.515625 -9.335938 4.765625 -9.109375 C 5.023438 -8.890625 5.472656 -8.707031 6.109375 -8.5625 L 7.796875 -8.203125 C 9.191406 -7.898438 10.207031 -7.421875 10.84375 -6.765625 C 11.488281 -6.109375 11.8125 -5.222656 11.8125 -4.109375 C 11.8125 -3.242188 11.59375 -2.476562 11.15625 -1.8125 C 10.726562 -1.144531 10.109375 -0.628906 9.296875 -0.265625 C 8.484375 0.0859375 7.519531 0.265625 6.40625 0.265625 Z M 6.40625 0.265625 "/></g></g></g><g fill="#ffffff" fill-opacity="1"><g transform="translate(73.383433, 30.370602)"><g><path d="M 6.40625 0.265625 C 5.46875 0.265625 4.609375 0.15625 3.828125 -0.0625 C 3.054688 -0.28125 2.394531 -0.582031 1.84375 -0.96875 C 1.289062 -1.351562 0.882812 -1.796875 0.625 -2.296875 L 2.53125 -4.359375 L 2.796875 -4.359375 C 3.253906 -3.742188 3.789062 -3.28125 4.40625 -2.96875 C 5.03125 -2.664062 5.707031 -2.515625 6.4375 -2.515625 C 7.101562 -2.515625 7.601562 -2.632812 7.9375 -2.875 C 8.28125 -3.113281 8.453125 -3.457031 8.453125 -3.90625 C 8.453125 -4.257812 8.328125 -4.550781 8.078125 -4.78125 C 7.835938 -5.019531 7.445312 -5.207031 6.90625 -5.34375 L 5.09375 -5.78125 C 3.738281 -6.101562 2.75 -6.597656 2.125 -7.265625 C 1.5 -7.929688 1.1875 -8.773438 1.1875 -9.796875 C 1.1875 -10.648438 1.398438 -11.390625 1.828125 -12.015625 C 2.265625 -12.648438 2.878906 -13.128906 3.671875 -13.453125 C 4.460938 -13.785156 5.382812 -13.953125 6.4375 -13.953125 C 7.664062 -13.953125 8.6875 -13.773438 9.5 -13.421875 C 10.3125 -13.066406 10.945312 -12.59375 11.40625 -12 L 9.5625 -10.015625 L 9.3125 -10.015625 C 8.9375 -10.441406 8.507812 -10.753906 8.03125 -10.953125 C 7.550781 -11.148438 7.019531 -11.25 6.4375 -11.25 C 5.070312 -11.25 4.390625 -10.828125 4.390625 -9.984375 C 4.390625 -9.628906 4.515625 -9.335938 4.765625 -9.109375 C 5.023438 -8.890625 5.472656 -8.707031 6.109375 -8.5625 L 7.796875 -8.203125 C 9.191406 -7.898438 10.207031 -7.421875 10.84375 -6.765625 C 11.488281 -6.109375 11.8125 -5.222656 11.8125 -4.109375 C 11.8125 -3.242188 11.59375 -2.476562 11.15625 -1.8125 C 10.726562 -1.144531 10.109375 -0.628906 9.296875 -0.265625 C 8.484375 0.0859375 7.519531 0.265625 6.40625 0.265625 Z M 6.40625 0.265625 "/></g></g></g></svg>