<svg width="18" height="18" viewBox="0 0 18 18" fill="none" xmlns="http://www.w3.org/2000/svg">
<path d="M16.4775 13.7477C16.4775 14.0177 16.4175 14.2952 16.29 14.5652C16.1625 14.8352 15.9975 15.0902 15.78 15.3302C15.4125 15.7352 15.0075 16.0277 14.55 16.2152C14.1 16.4027 13.6125 16.5002 13.0875 16.5002C12.3225 16.5002 11.505 16.3202 10.6425 15.9527C9.78 15.5852 8.9175 15.0902 8.0625 14.4677C7.2 13.8377 6.3825 13.1402 5.6025 12.3677C4.83 11.5877 4.1325 10.7702 3.51 9.91524C2.895 9.06024 2.4 8.20524 2.04 7.35774C1.68 6.50274 1.5 5.68524 1.5 4.90524C1.5 4.39524 1.59 3.90774 1.77 3.45774C1.95 3.00024 2.235 2.58024 2.6325 2.20524C3.1125 1.73274 3.6375 1.50024 4.1925 1.50024C4.4025 1.50024 4.6125 1.54524 4.8 1.63524C4.995 1.72524 5.1675 1.86024 5.3025 2.05524L7.0425 4.50774C7.1775 4.69524 7.275 4.86774 7.3425 5.03274C7.41 5.19024 7.4475 5.34774 7.4475 5.49024C7.4475 5.67024 7.395 5.85024 7.29 6.02274C7.1925 6.19524 7.05 6.37524 6.87 6.55524L6.3 7.14774C6.2175 7.23024 6.18 7.32774 6.18 7.44774C6.18 7.50774 6.1875 7.56024 6.2025 7.62024C6.225 7.68024 6.2475 7.72524 6.2625 7.77024C6.3975 8.01774 6.63 8.34024 6.96 8.73024C7.2975 9.12024 7.6575 9.51774 8.0475 9.91524C8.4525 10.3127 8.8425 10.6802 9.24 11.0177C9.63 11.3477 9.9525 11.5727 10.2075 11.7077C10.245 11.7227 10.29 11.7452 10.3425 11.7677C10.4025 11.7902 10.4625 11.7977 10.53 11.7977C10.6575 11.7977 10.755 11.7527 10.8375 11.6702L11.4075 11.1077C11.595 10.9202 11.775 10.7777 11.9475 10.6877C12.12 10.5827 12.2925 10.5302 12.48 10.5302C12.6225 10.5302 12.7725 10.5602 12.9375 10.6277C13.1025 10.6952 13.275 10.7927 13.4625 10.9202L15.945 12.6827C16.14 12.8177 16.275 12.9752 16.3575 13.1627C16.4325 13.3502 16.4775 13.5377 16.4775 13.7477Z" stroke="#66676F" stroke-width="1.5" stroke-miterlimit="10"/>
<path d="M13.875 6.75049C13.875 6.30049 13.5225 5.61049 12.9975 5.04799C12.5175 4.53049 11.88 4.12549 11.25 4.12549" stroke="#66676F" stroke-width="1.5" stroke-linecap="round" stroke-linejoin="round"/>
<path d="M16.5 6.75024C16.5 3.84774 14.1525 1.50024 11.25 1.50024" stroke="#66676F" stroke-width="1.5" stroke-linecap="round" stroke-linejoin="round"/>
</svg>
